<svg height="512" viewBox="0 0 74 74" width="512" xmlns="http://www.w3.org/2000/svg"><g id="color_line" data-name="color line"><rect fill="#fe7058" height="55.805" rx="2.314" transform="matrix(-1 0 0 -1 81.497 74.001)" width="18.696" x="31.401" y="9.098"/><path d="m50.1 11.41v2.74a2.313 2.313 0 0 0 -2.32-2.31h-14.07a2.311 2.311 0 0 0 -2.31 2.31v-2.74a2.311 2.311 0 0 1 2.31-2.31h14.07a2.313 2.313 0 0 1 2.32 2.31z" fill="#ea6453"/><path d="m31.4 24.325c7.326-1.577 11.381-1.577 18.707 0v-5.183a41.4 41.4 0 0 0 -18.707 0z" fill="#ebf0f3"/><path d="m31.4 24.825a.5.5 0 0 1 -.5-.5v-5.182a.5.5 0 0 1 .4-.49 41.781 41.781 0 0 1 18.9 0 .5.5 0 0 1 .4.49v5.182a.5.5 0 0 1 -.605.489c-7.259-1.563-11.234-1.562-18.5 0a.516.516 0 0 1 -.095.011zm.5-5.271v4.154a37.157 37.157 0 0 1 17.706 0v-4.154a40.412 40.412 0 0 0 -17.706 0z" fill="#323c6b"/><rect fill="#fcd462" height="55.805" rx="2.314" transform="matrix(-1 0 0 -1 121.108 74.001)" width="20.892" x="50.108" y="9.098"/><path d="m68.686 9.1h-16.264a2.311 2.311 0 0 0 -2.309 2.272h16.26a2.314 2.314 0 0 1 2.314 2.314v51.175.042a2.314 2.314 0 0 0 2.313-2.314v-51.177a2.314 2.314 0 0 0 -2.314-2.312z" fill="#f7be56"/><path d="m56.337 16.312h8.434v25.207h-8.434z" fill="#ebf0f3"/><path d="m64.771 42.019h-8.434a.5.5 0 0 1 -.5-.5v-25.207a.5.5 0 0 1 .5-.5h8.434a.5.5 0 0 1 .5.5v25.207a.5.5 0 0 1 -.5.5zm-7.934-1h7.434v-24.207h-7.434z" fill="#323c6b"/><path d="m50.108 53.468h20.892v4.391h-20.892z" fill="#ebf0f3"/><g fill="#323c6b"><path d="m71 58.359h-20.892a.5.5 0 0 1 -.5-.5v-4.391a.5.5 0 0 1 .5-.5h20.892a.5.5 0 0 1 .5.5v4.391a.5.5 0 0 1 -.5.5zm-20.392-1h19.892v-3.391h-19.892z"/><path d="m37.8 58.534a.5.5 0 0 1 -.5-.5l.021-18.293a.5.5 0 0 1 .5-.5.5.5 0 0 1 .5.5l-.021 18.294a.5.5 0 0 1 -.5.499z"/><path d="m43.678 58.568a.5.5 0 0 1 -.5-.5l.022-18.293a.5.5 0 0 1 .5-.5.5.5 0 0 1 .5.5l-.021 18.293a.5.5 0 0 1 -.501.5z"/><path d="m68.687 68.4h-8.812a.5.5 0 0 1 0-1h8.812a.5.5 0 0 1 0 1z"/><path d="m57.063 68.4h-.937a.5.5 0 0 1 0-1h.938a.5.5 0 0 1 0 1z"/><path d="m68.687 65.4h-16.265a2.816 2.816 0 0 1 -2.813-2.813v-51.175a2.816 2.816 0 0 1 2.813-2.812h16.265a2.816 2.816 0 0 1 2.813 2.812v51.177a2.816 2.816 0 0 1 -2.813 2.811zm-16.265-55.8a1.815 1.815 0 0 0 -1.813 1.813v51.176a1.815 1.815 0 0 0 1.813 1.811h16.265a1.815 1.815 0 0 0 1.813-1.811v-51.177a1.815 1.815 0 0 0 -1.813-1.812z"/><path d="m47.783 65.4h-14.068a2.817 2.817 0 0 1 -2.815-2.811v-51.177a2.817 2.817 0 0 1 2.815-2.812h14.068a2.816 2.816 0 0 1 2.817 2.812v51.177a2.816 2.816 0 0 1 -2.817 2.811zm-14.068-55.8a1.816 1.816 0 0 0 -1.815 1.812v51.177a1.816 1.816 0 0 0 1.815 1.811h14.068a1.815 1.815 0 0 0 1.817-1.811v-51.177a1.815 1.815 0 0 0 -1.817-1.812z"/></g><rect fill="#89c5cd" height="55.805" rx="2.314" transform="matrix(-.979 -.204 .204 -.979 26.575 76.738)" width="18.699" x="7.89" y="9.098"/><path d="m31.61 13.85-10.43 50.11a2.316 2.316 0 0 1 -2.74 1.79l-.04-.01 10.39-49.89a2.313 2.313 0 0 0 -1.8-2.73l-13.74-2.86.05-.22a2.316 2.316 0 0 1 2.74-1.79l13.78 2.87a2.306 2.306 0 0 1 1.79 2.73z" fill="#7cb1b5"/><path d="m10.3 24.474c7.494-.05 11.464.776 18.314 3.813l1.177-5.652a41.4 41.4 0 0 0 -18.314-3.813z" fill="#ebf0f3"/><path d="m28.609 28.788a.493.493 0 0 1 -.2-.043c-6.79-3.009-10.674-3.829-18.109-3.77a.441.441 0 0 1 -.39-.183.5.5 0 0 1 -.1-.419l1.177-5.652a.488.488 0 0 1 .493-.4 41.782 41.782 0 0 1 18.506 3.853.5.5 0 0 1 .294.562l-1.18 5.654a.5.5 0 0 1 -.489.4zm-17.68-4.815a37.147 37.147 0 0 1 17.317 3.609l.967-4.646a40.428 40.428 0 0 0 -17.336-3.609l-.967 4.646z" fill="#323c6b"/><path d="m9.4 56.782a.521.521 0 0 1 -.111-.012.5.5 0 0 1 -.376-.6l3.757-16.524a.5.5 0 1 1 .975.222l-3.756 16.525a.5.5 0 0 1 -.489.389z" fill="#323c6b"/><path d="m15.128 58.112a.521.521 0 0 1 -.111-.012.5.5 0 0 1 -.376-.6l3.759-16.522a.5.5 0 1 1 .975.222l-3.76 16.523a.5.5 0 0 1 -.487.389z" fill="#323c6b"/><path d="m9.058 15.858a.5.5 0 0 1 -.49-.6l.123-.589a.5.5 0 1 1 .979.2l-.123.589a.5.5 0 0 1 -.489.4z" fill="#323c6b"/><path d="m9.683 12.853a.478.478 0 0 1 -.113-.013.5.5 0 0 1 -.374-.6l.681-2.922a5.812 5.812 0 0 1 6.875-4.5.5.5 0 0 1 -.2.979 4.81 4.81 0 0 0 -5.7 3.731l-.683 2.934a.5.5 0 0 1 -.486.391z" fill="#323c6b"/><path d="m18.917 66.3a2.811 2.811 0 0 1 -.579-.061l-13.774-2.866a2.816 2.816 0 0 1 -2.181-3.328l10.429-50.105a2.812 2.812 0 0 1 3.327-2.18l13.778 2.868a2.817 2.817 0 0 1 2.183 3.329l-10.435 50.103a2.816 2.816 0 0 1 -2.748 2.24zm-14.149-3.906 13.773 2.867a1.813 1.813 0 0 0 2.146-1.405l10.433-50.1a1.815 1.815 0 0 0 -1.405-2.146l-13.779-2.871a1.813 1.813 0 0 0 -2.146 1.405l-10.428 50.105a1.815 1.815 0 0 0 1.405 2.146z" fill="#323c6b"/><path d="m68.687 53.953h1.813v3.406h-1.813z" fill="#e1e6e9"/><path d="m53.313 48.57a.55.55 0 0 1 -.55-.55v-8.811a.55.55 0 1 1 1.1 0v8.812a.55.55 0 0 1 -.55.549z" fill="#fff"/><path d="m53.313 36.722a.55.55 0 0 1 -.55-.55v-.937a.55.55 0 0 1 1.1 0v.938a.55.55 0 0 1 -.55.549z" fill="#fff"/></g></svg>